<?xml version="1.0" encoding="UTF-8"?>
<svg id="Layer_1" data-name="Layer 1" xmlns="http://www.w3.org/2000/svg" viewBox="0 0 500 500">
  <defs>
    <style>
      .cls-1 {
        fill: #231f20;
      }

      .cls-2 {
        fill: #fff;
      }
    </style>
  </defs>
  <circle class="cls-2" cx="250" cy="250" r="250"/>
  <path class="cls-1" d="M140.3,183.47s32.76,15.21,30.91,58.36c-1.73,40.23-37.81,54.04-37.81,54.04,0,0,9.06,36,36.43,63.37s58.36,3.97,58.36,3.97c0,0,9.67-2.07,16.4-2.07s32.46,8.29,38.16,10.19,20.55,6.73,43.17-20.72,48-77.18,40.23-124.32-34.71-62.5-47.31-66.47-25.9-7.25-44.55,0-22.62,11.4-43.34,3.28-33.5-9.84-50.42-6.22-30.22,12.6-40.23,26.59Z"/>
  <path class="cls-1" d="M192.44,85.54s-1.04,25.76,11.74,41.81,28.47,26.94,46.3,24.35c1.18-.17,2.05-23.83-14.01-42.47-16.06-18.65-27.11-21.12-44.03-23.68Z"/>
</svg>